<svg xmlns="http://www.w3.org/2000/svg" width="1366" height="758" style="cursor: move;"><g transform="translate(-1281.7750366872315,-687.7798761794088) scale(2.754978290995987)"><path class="link" marker-end="" d="M523,289, 703,329" style="stroke-width: 0.5; stroke-opacity: 1; stroke: rgb(80, 80, 80); opacity: 1;"></path><path class="link" marker-end="" d="M523,289, 703,369" style="stroke-width: 0.5; stroke-opacity: 1; stroke: rgb(80, 80, 80); opacity: 1;"></path><path class="link" marker-end="" d="M523,289, 703,409" style="stroke-width: 0.5; stroke-opacity: 1; stroke: rgb(80, 80, 80); opacity: 1;"></path><path class="link" marker-end="" d="M523,329, 703,329" style="stroke-width: 0.5; stroke-opacity: 1; stroke: rgb(80, 80, 80); opacity: 1;"></path><path class="link" marker-end="" d="M523,329, 703,369" style="stroke-width: 0.5; stroke-opacity: 1; stroke: rgb(80, 80, 80); opacity: 1;"></path><path class="link" marker-end="" d="M523,329, 703,409" style="stroke-width: 0.5; stroke-opacity: 1; stroke: rgb(80, 80, 80); opacity: 1;"></path><path class="link" marker-end="" d="M523,369, 703,329" style="stroke-width: 0.5; stroke-opacity: 1; stroke: rgb(80, 80, 80); opacity: 1;"></path><path class="link" marker-end="" d="M523,369, 703,369" style="stroke-width: 0.5; stroke-opacity: 1; stroke: rgb(80, 80, 80); opacity: 1;"></path><path class="link" marker-end="" d="M523,369, 703,409" style="stroke-width: 0.5; stroke-opacity: 1; stroke: rgb(80, 80, 80); opacity: 1;"></path><path class="link" marker-end="" d="M523,409, 703,329" style="stroke-width: 0.5; stroke-opacity: 1; stroke: rgb(80, 80, 80); opacity: 1;"></path><path class="link" marker-end="" d="M523,409, 703,369" style="stroke-width: 0.5; stroke-opacity: 1; stroke: rgb(80, 80, 80); opacity: 1;"></path><path class="link" marker-end="" d="M523,409, 703,409" style="stroke-width: 0.5; stroke-opacity: 1; stroke: rgb(80, 80, 80); opacity: 1;"></path><path class="link" marker-end="" d="M523,449, 703,329" style="stroke-width: 0.5; stroke-opacity: 1; stroke: rgb(80, 80, 80); opacity: 1;"></path><path class="link" marker-end="" d="M523,449, 703,369" style="stroke-width: 0.5; stroke-opacity: 1; stroke: rgb(80, 80, 80); opacity: 1;"></path><path class="link" marker-end="" d="M523,449, 703,409" style="stroke-width: 0.5; stroke-opacity: 1; stroke: rgb(80, 80, 80); opacity: 1;"></path><path class="link" marker-end="" d="M703,329, 883,369" style="stroke-width: 0.5; stroke-opacity: 1; stroke: rgb(80, 80, 80); opacity: 1;"></path><path class="link" marker-end="" d="M703,369, 883,369" style="stroke-width: 0.5; stroke-opacity: 1; stroke: rgb(80, 80, 80); opacity: 1;"></path><path class="link" marker-end="" d="M703,409, 883,369" style="stroke-width: 0.5; stroke-opacity: 1; stroke: rgb(80, 80, 80); opacity: 1;"></path><circle r="10" class="node" id="0_0" cx="523" cy="289" style="fill: rgb(255, 255, 255); stroke: rgb(51, 51, 51); opacity: 1;"></circle><circle r="10" class="node" id="0_1" cx="523" cy="329" style="fill: rgb(255, 255, 255); stroke: rgb(51, 51, 51); opacity: 1;"></circle><circle r="10" class="node" id="0_2" cx="523" cy="369" style="fill: rgb(255, 255, 255); stroke: rgb(51, 51, 51); opacity: 1;"></circle><circle r="10" class="node" id="0_3" cx="523" cy="409" style="fill: rgb(255, 255, 255); stroke: rgb(51, 51, 51); opacity: 1;"></circle><circle r="10" class="node" id="0_4" cx="523" cy="449" style="fill: rgb(255, 255, 255); stroke: rgb(51, 51, 51); opacity: 1;"></circle><circle r="10" class="node" id="1_0" cx="703" cy="329" style="fill: rgb(255, 255, 255); stroke: rgb(51, 51, 51); opacity: 1;"></circle><circle r="10" class="node" id="1_1" cx="703" cy="369" style="fill: rgb(255, 255, 255); stroke: rgb(51, 51, 51); opacity: 1;"></circle><circle r="10" class="node" id="1_2" cx="703" cy="409" style="fill: rgb(255, 255, 255); stroke: rgb(51, 51, 51); opacity: 1;"></circle><circle r="10" class="node" id="2_0" cx="883" cy="369" style="fill: rgb(255, 255, 255); stroke: rgb(51, 51, 51); opacity: 1;"></circle><text class="text" dy=".35em" x="488" y="489" style="font-size: 12px;">Input Layer ∈ ℝ⁵</text><text class="text" dy=".35em" x="668" y="489" style="font-size: 12px;">Hidden Layer ∈ ℝ³</text><text class="text" dy=".35em" x="848" y="489" style="font-size: 12px;">Output Layer ∈ ℝ¹</text></g><defs><marker id="arrow" viewBox="0 -5 10 10" markerWidth="7" markerHeight="7" orient="auto" refX="40"><path d="M0,-5L10,0L0,5" style="stroke: rgb(80, 80, 80); fill: none;"></path></marker></defs></svg>